<mxfile host="Electron" modified="2023-12-20T17:10:25.473Z" agent="Mozilla/5.0 (Windows NT 10.0; Win64; x64) AppleWebKit/537.36 (KHTML, like Gecko) draw.io/22.1.2 Chrome/114.0.5735.289 Electron/25.9.4 Safari/537.36" etag="mpNzYNpRSA5kdXwcrUDq" version="22.1.2" type="device">
  <diagram name="第 1 页" id="rBOB41rJpZ8j8XuVpc66">
    <mxGraphModel dx="3093" dy="2038" grid="1" gridSize="10" guides="1" tooltips="1" connect="1" arrows="1" fold="1" page="1" pageScale="1" pageWidth="503" pageHeight="503" math="0" shadow="0">
      <root>
        <mxCell id="0" />
        <mxCell id="1" parent="0" />
        <mxCell id="aIVWhXOY09GI1YQX6U9N-1" value="&lt;b&gt;&lt;br&gt;&lt;font style=&quot;font-size: 14px;&quot;&gt;Laboratory technician staff&lt;/font&gt;&lt;br&gt;&lt;/b&gt;" style="shape=umlActor;verticalLabelPosition=bottom;verticalAlign=top;html=1;outlineConnect=0;" parent="1" vertex="1">
          <mxGeometry x="-30" y="210" width="30" height="60" as="geometry" />
        </mxCell>
        <mxCell id="aIVWhXOY09GI1YQX6U9N-2" value="&lt;br&gt;&lt;strong style=&quot;border: 0px solid rgb(217, 217, 227); box-sizing: border-box; --tw-border-spacing-x: 0; --tw-border-spacing-y: 0; --tw-translate-x: 0; --tw-translate-y: 0; --tw-rotate: 0; --tw-skew-x: 0; --tw-skew-y: 0; --tw-scale-x: 1; --tw-scale-y: 1; --tw-pan-x: ; --tw-pan-y: ; --tw-pinch-zoom: ; --tw-scroll-snap-strictness: proximity; --tw-gradient-from-position: ; --tw-gradient-via-position: ; --tw-gradient-to-position: ; --tw-ordinal: ; --tw-slashed-zero: ; --tw-numeric-figure: ; --tw-numeric-spacing: ; --tw-numeric-fraction: ; --tw-ring-inset: ; --tw-ring-offset-width: 0px; --tw-ring-offset-color: #fff; --tw-ring-color: rgba(69,89,164,0.5); --tw-ring-offset-shadow: 0 0 transparent; --tw-ring-shadow: 0 0 transparent; --tw-shadow: 0 0 transparent; --tw-shadow-colored: 0 0 transparent; --tw-blur: ; --tw-brightness: ; --tw-contrast: ; --tw-grayscale: ; --tw-hue-rotate: ; --tw-invert: ; --tw-saturate: ; --tw-sepia: ; --tw-drop-shadow: ; --tw-backdrop-blur: ; --tw-backdrop-brightness: ; --tw-backdrop-contrast: ; --tw-backdrop-grayscale: ; --tw-backdrop-hue-rotate: ; --tw-backdrop-invert: ; --tw-backdrop-opacity: ; --tw-backdrop-saturate: ; --tw-backdrop-sepia: ; font-weight: 600; color: var(--tw-prose-bold); font-family: Söhne, ui-sans-serif, system-ui, -apple-system, &amp;quot;Segoe UI&amp;quot;, Roboto, Ubuntu, Cantarell, &amp;quot;Noto Sans&amp;quot;, sans-serif, &amp;quot;Helvetica Neue&amp;quot;, Arial, &amp;quot;Apple Color Emoji&amp;quot;, &amp;quot;Segoe UI Emoji&amp;quot;, &amp;quot;Segoe UI Symbol&amp;quot;, &amp;quot;Noto Color Emoji&amp;quot;; font-size: 14px; font-style: normal; font-variant-ligatures: normal; font-variant-caps: normal; letter-spacing: normal; orphans: 2; text-align: left; text-indent: 0px; text-transform: none; widows: 2; word-spacing: 0px; -webkit-text-stroke-width: 0px; text-decoration-thickness: initial; text-decoration-style: initial; text-decoration-color: initial;&quot;&gt;Doctor&lt;/strong&gt;&lt;br&gt;" style="shape=umlActor;verticalLabelPosition=bottom;verticalAlign=top;html=1;outlineConnect=0;" parent="1" vertex="1">
          <mxGeometry x="-32" y="930" width="30" height="60" as="geometry" />
        </mxCell>
        <mxCell id="aIVWhXOY09GI1YQX6U9N-3" value="&lt;b&gt;&lt;font style=&quot;font-size: 14px;&quot;&gt;Pharmacist&lt;/font&gt;&lt;/b&gt;" style="shape=umlActor;verticalLabelPosition=bottom;verticalAlign=top;html=1;outlineConnect=0;" parent="1" vertex="1">
          <mxGeometry x="-32" y="1870" width="26" height="60" as="geometry" />
        </mxCell>
        <mxCell id="aIVWhXOY09GI1YQX6U9N-4" value="&lt;span style=&quot;font-size: 14px;&quot;&gt;&lt;b&gt;System operators&lt;/b&gt;&lt;/span&gt;" style="shape=umlActor;verticalLabelPosition=bottom;verticalAlign=top;html=1;outlineConnect=0;" parent="1" vertex="1">
          <mxGeometry x="-30" y="2510" width="26" height="60" as="geometry" />
        </mxCell>
        <mxCell id="aIVWhXOY09GI1YQX6U9N-5" value="&lt;b&gt;&lt;font style=&quot;font-size: 14px;&quot;&gt;Hospital Managers&lt;/font&gt;&lt;br&gt;&lt;/b&gt;" style="shape=umlActor;verticalLabelPosition=bottom;verticalAlign=top;html=1;outlineConnect=0;" parent="1" vertex="1">
          <mxGeometry x="1990" y="200" width="30" height="60" as="geometry" />
        </mxCell>
        <mxCell id="aIVWhXOY09GI1YQX6U9N-6" value="&lt;b&gt;&lt;span style=&quot;font-size: 14px;&quot;&gt;Patient&lt;/span&gt;&lt;br&gt;&lt;/b&gt;" style="shape=umlActor;verticalLabelPosition=bottom;verticalAlign=top;html=1;outlineConnect=0;" parent="1" vertex="1">
          <mxGeometry x="1990" y="920" width="30" height="60" as="geometry" />
        </mxCell>
        <mxCell id="aIVWhXOY09GI1YQX6U9N-7" value="&lt;b&gt;&lt;font style=&quot;font-size: 14px;&quot;&gt;Receptionist&lt;/font&gt;&lt;br&gt;&lt;/b&gt;" style="shape=umlActor;verticalLabelPosition=bottom;verticalAlign=top;html=1;outlineConnect=0;" parent="1" vertex="1">
          <mxGeometry x="1990" y="1880" width="30" height="60" as="geometry" />
        </mxCell>
        <mxCell id="aIVWhXOY09GI1YQX6U9N-8" value="&lt;b&gt;&lt;span style=&quot;font-size: 14px;&quot;&gt;Nurse&lt;/span&gt;&lt;br&gt;&lt;/b&gt;" style="shape=umlActor;verticalLabelPosition=bottom;verticalAlign=top;html=1;outlineConnect=0;" parent="1" vertex="1">
          <mxGeometry x="1982" y="2570" width="30" height="60" as="geometry" />
        </mxCell>
        <mxCell id="aIVWhXOY09GI1YQX6U9N-9" value="s" style="rounded=0;whiteSpace=wrap;html=1;" parent="1" vertex="1">
          <mxGeometry x="80" y="-222.5" width="1810" height="3360" as="geometry" />
        </mxCell>
        <mxCell id="aIVWhXOY09GI1YQX6U9N-10" value="&lt;font style=&quot;font-size: 14px;&quot;&gt;Log in&lt;/font&gt;" style="ellipse;whiteSpace=wrap;html=1;" parent="1" vertex="1">
          <mxGeometry x="1370" y="560" width="120" height="80" as="geometry" />
        </mxCell>
        <mxCell id="aIVWhXOY09GI1YQX6U9N-11" value="&lt;font style=&quot;font-size: 14px;&quot;&gt;Register&lt;/font&gt;" style="ellipse;whiteSpace=wrap;html=1;" parent="1" vertex="1">
          <mxGeometry x="1641" y="503" width="120" height="80" as="geometry" />
        </mxCell>
        <mxCell id="aIVWhXOY09GI1YQX6U9N-12" value="&lt;span style=&quot;font-size: 14px;&quot;&gt;Book an appointment&lt;/span&gt;" style="ellipse;whiteSpace=wrap;html=1;" parent="1" vertex="1">
          <mxGeometry x="1330" y="780" width="120" height="80" as="geometry" />
        </mxCell>
        <mxCell id="aIVWhXOY09GI1YQX6U9N-13" value="&lt;font style=&quot;font-size: 14px;&quot;&gt;Medical History and Records Access&lt;/font&gt;" style="ellipse;whiteSpace=wrap;html=1;" parent="1" vertex="1">
          <mxGeometry x="1220" y="920" width="120" height="80" as="geometry" />
        </mxCell>
        <mxCell id="aIVWhXOY09GI1YQX6U9N-14" value="&lt;font style=&quot;font-size: 14px;&quot;&gt;Prescription Requests&lt;/font&gt;" style="ellipse;whiteSpace=wrap;html=1;" parent="1" vertex="1">
          <mxGeometry x="1570" y="970" width="120" height="80" as="geometry" />
        </mxCell>
        <mxCell id="aIVWhXOY09GI1YQX6U9N-15" value="&lt;font style=&quot;font-size: 14px;&quot;&gt;Billing and Payment&lt;/font&gt;" style="ellipse;whiteSpace=wrap;html=1;" parent="1" vertex="1">
          <mxGeometry x="1505" y="1110" width="120" height="80" as="geometry" />
        </mxCell>
        <mxCell id="aIVWhXOY09GI1YQX6U9N-16" value="&lt;font style=&quot;font-size: 14px;&quot;&gt;&lt;br&gt;Appointment Reminders and Notifications&lt;br&gt;&lt;/font&gt;" style="ellipse;whiteSpace=wrap;html=1;" parent="1" vertex="1">
          <mxGeometry x="1370" y="1307.5" width="120" height="80" as="geometry" />
        </mxCell>
        <mxCell id="aIVWhXOY09GI1YQX6U9N-17" value="&lt;font style=&quot;font-size: 14px;&quot;&gt;Manage Appointment Scheduling:&lt;/font&gt;" style="ellipse;whiteSpace=wrap;html=1;" parent="1" vertex="1">
          <mxGeometry x="252" y="1417.5" width="120" height="80" as="geometry" />
        </mxCell>
        <mxCell id="aIVWhXOY09GI1YQX6U9N-18" value="&lt;font style=&quot;font-size: 14px;&quot;&gt;Manage Prescription&lt;/font&gt;" style="ellipse;whiteSpace=wrap;html=1;" parent="1" vertex="1">
          <mxGeometry x="310" y="1260" width="120" height="80" as="geometry" />
        </mxCell>
        <mxCell id="aIVWhXOY09GI1YQX6U9N-19" value="&lt;font style=&quot;font-size: 14px;&quot;&gt;Order Tests&lt;/font&gt;" style="ellipse;whiteSpace=wrap;html=1;" parent="1" vertex="1">
          <mxGeometry x="200" y="1077.5" width="120" height="80" as="geometry" />
        </mxCell>
        <mxCell id="aIVWhXOY09GI1YQX6U9N-20" value="&lt;font style=&quot;font-size: 14px;&quot;&gt;Communicate with Patient&lt;/font&gt;" style="ellipse;whiteSpace=wrap;html=1;" parent="1" vertex="1">
          <mxGeometry x="205" y="1540" width="120" height="80" as="geometry" />
        </mxCell>
        <mxCell id="aIVWhXOY09GI1YQX6U9N-21" value="&lt;font style=&quot;font-size: 14px;&quot;&gt;Patient Admission and Discharge&lt;/font&gt;" style="ellipse;whiteSpace=wrap;html=1;" parent="1" vertex="1">
          <mxGeometry x="1330" y="2790" width="120" height="80" as="geometry" />
        </mxCell>
        <mxCell id="aIVWhXOY09GI1YQX6U9N-22" value="&lt;font style=&quot;font-size: 14px;&quot;&gt;Give prescribed treatment to patient&lt;/font&gt;" style="ellipse;whiteSpace=wrap;html=1;" parent="1" vertex="1">
          <mxGeometry x="1160" y="2600" width="120" height="80" as="geometry" />
        </mxCell>
        <mxCell id="aIVWhXOY09GI1YQX6U9N-23" value="&lt;font style=&quot;font-size: 14px;&quot;&gt;Record patient symptoms&lt;/font&gt;" style="ellipse;whiteSpace=wrap;html=1;" parent="1" vertex="1">
          <mxGeometry x="1330" y="2980" width="120" height="80" as="geometry" />
        </mxCell>
        <mxCell id="aIVWhXOY09GI1YQX6U9N-24" value="&lt;font style=&quot;font-size: 14px;&quot;&gt;Manage Users:&lt;/font&gt;" style="ellipse;whiteSpace=wrap;html=1;" parent="1" vertex="1">
          <mxGeometry x="1330" y="171.5" width="120" height="80" as="geometry" />
        </mxCell>
        <mxCell id="aIVWhXOY09GI1YQX6U9N-25" value="&lt;font style=&quot;font-size: 14px;&quot;&gt;Staff Management&lt;/font&gt;" style="ellipse;whiteSpace=wrap;html=1;" parent="1" vertex="1">
          <mxGeometry x="1480" y="-40" width="120" height="80" as="geometry" />
        </mxCell>
        <mxCell id="aIVWhXOY09GI1YQX6U9N-26" value="&lt;font style=&quot;font-size: 14px;&quot;&gt;&lt;br&gt;Medication dispensing&lt;br&gt;&lt;/font&gt;" style="ellipse;whiteSpace=wrap;html=1;" parent="1" vertex="1">
          <mxGeometry x="325" y="1850" width="120" height="80" as="geometry" />
        </mxCell>
        <mxCell id="aIVWhXOY09GI1YQX6U9N-27" value="&lt;font style=&quot;font-size: 14px;&quot;&gt;Prescription Verification&lt;br&gt;&lt;/font&gt;" style="ellipse;whiteSpace=wrap;html=1;" parent="1" vertex="1">
          <mxGeometry x="325" y="1990" width="120" height="80" as="geometry" />
        </mxCell>
        <mxCell id="aIVWhXOY09GI1YQX6U9N-28" value="&lt;font style=&quot;font-size: 14px;&quot;&gt;Inventory Management&lt;br&gt;&lt;/font&gt;" style="ellipse;whiteSpace=wrap;html=1;" parent="1" vertex="1">
          <mxGeometry x="325" y="2130" width="120" height="80" as="geometry" />
        </mxCell>
        <mxCell id="aIVWhXOY09GI1YQX6U9N-29" value="&lt;font style=&quot;font-size: 14px;&quot;&gt;Medication Information&lt;br&gt;&lt;/font&gt;" style="ellipse;whiteSpace=wrap;html=1;" parent="1" vertex="1">
          <mxGeometry x="325" y="2258" width="120" height="80" as="geometry" />
        </mxCell>
        <mxCell id="aIVWhXOY09GI1YQX6U9N-30" value="&lt;font style=&quot;font-size: 14px;&quot;&gt;&lt;br&gt;Schedule patient appointment&lt;br&gt;&lt;/font&gt;" style="ellipse;whiteSpace=wrap;html=1;" parent="1" vertex="1">
          <mxGeometry x="1330" y="1750" width="120" height="80" as="geometry" />
        </mxCell>
        <mxCell id="aIVWhXOY09GI1YQX6U9N-31" value="&lt;font style=&quot;font-size: 14px;&quot;&gt;Patient Check-In and Check-Out&lt;br&gt;&lt;/font&gt;" style="ellipse;whiteSpace=wrap;html=1;" parent="1" vertex="1">
          <mxGeometry x="1330" y="1860" width="120" height="80" as="geometry" />
        </mxCell>
        <mxCell id="aIVWhXOY09GI1YQX6U9N-32" value="&lt;font style=&quot;font-size: 14px;&quot;&gt;Medical Records Management&lt;br&gt;&lt;/font&gt;" style="ellipse;whiteSpace=wrap;html=1;" parent="1" vertex="1">
          <mxGeometry x="1330" y="1960" width="120" height="80" as="geometry" />
        </mxCell>
        <mxCell id="aIVWhXOY09GI1YQX6U9N-33" value="&lt;font style=&quot;font-size: 14px;&quot;&gt;Receive payment&lt;br&gt;&lt;/font&gt;" style="ellipse;whiteSpace=wrap;html=1;" parent="1" vertex="1">
          <mxGeometry x="1330" y="2080" width="120" height="80" as="geometry" />
        </mxCell>
        <mxCell id="aIVWhXOY09GI1YQX6U9N-34" value="&lt;font style=&quot;font-size: 14px;&quot;&gt;Patient Information Updates&lt;br&gt;&lt;/font&gt;" style="ellipse;whiteSpace=wrap;html=1;" parent="1" vertex="1">
          <mxGeometry x="1330" y="2220" width="120" height="80" as="geometry" />
        </mxCell>
        <mxCell id="aIVWhXOY09GI1YQX6U9N-35" value="&lt;font style=&quot;font-size: 14px;&quot;&gt;Data Entry&lt;/font&gt;" style="ellipse;whiteSpace=wrap;html=1;" parent="1" vertex="1">
          <mxGeometry x="294" y="-70" width="120" height="80" as="geometry" />
        </mxCell>
        <mxCell id="aIVWhXOY09GI1YQX6U9N-36" value="&lt;font style=&quot;font-size: 14px;&quot;&gt;Instrument Troubleshooting&lt;/font&gt;" style="ellipse;whiteSpace=wrap;html=1;" parent="1" vertex="1">
          <mxGeometry x="299" y="160" width="120" height="80" as="geometry" />
        </mxCell>
        <mxCell id="aIVWhXOY09GI1YQX6U9N-37" value="&lt;font style=&quot;font-size: 14px;&quot;&gt;Test Request Handling&lt;/font&gt;" style="ellipse;whiteSpace=wrap;html=1;" parent="1" vertex="1">
          <mxGeometry x="294" y="490" width="120" height="80" as="geometry" />
        </mxCell>
        <mxCell id="aIVWhXOY09GI1YQX6U9N-38" value="&lt;font style=&quot;font-size: 14px;&quot;&gt;Setup Hospital accounts&lt;/font&gt;" style="ellipse;whiteSpace=wrap;html=1;" parent="1" vertex="1">
          <mxGeometry x="320" y="2820" width="120" height="80" as="geometry" />
        </mxCell>
        <mxCell id="aIVWhXOY09GI1YQX6U9N-39" value="&lt;font style=&quot;font-size: 14px;&quot;&gt;Manage User Accounts&lt;/font&gt;" style="ellipse;whiteSpace=wrap;html=1;" parent="1" vertex="1">
          <mxGeometry x="320" y="2650" width="120" height="80" as="geometry" />
        </mxCell>
        <mxCell id="aIVWhXOY09GI1YQX6U9N-41" value="&lt;font style=&quot;font-size: 14px;&quot;&gt;User Authentication and Authorization&lt;/font&gt;" style="ellipse;whiteSpace=wrap;html=1;" parent="1" vertex="1">
          <mxGeometry x="325" y="300" width="120" height="80" as="geometry" />
        </mxCell>
        <mxCell id="aIVWhXOY09GI1YQX6U9N-42" value="&lt;font style=&quot;font-size: 14px;&quot;&gt;User Authentication and Authorization&lt;/font&gt;" style="ellipse;whiteSpace=wrap;html=1;" parent="1" vertex="1">
          <mxGeometry x="340" y="780" width="120" height="80" as="geometry" />
        </mxCell>
        <mxCell id="aIVWhXOY09GI1YQX6U9N-43" value="&lt;font style=&quot;font-size: 14px;&quot;&gt;Patient Information Access&lt;/font&gt;" style="ellipse;whiteSpace=wrap;html=1;" parent="1" vertex="1">
          <mxGeometry x="790" y="1070" width="130" height="80" as="geometry" />
        </mxCell>
        <mxCell id="aIVWhXOY09GI1YQX6U9N-44" value="&lt;font style=&quot;font-size: 14px;&quot;&gt;User Authentication and Authorization&lt;/font&gt;" style="ellipse;whiteSpace=wrap;html=1;" parent="1" vertex="1">
          <mxGeometry x="325" y="1730" width="120" height="80" as="geometry" />
        </mxCell>
        <mxCell id="aIVWhXOY09GI1YQX6U9N-45" value="&lt;font style=&quot;font-size: 14px;&quot;&gt;User Authentication and Authorization&lt;/font&gt;" style="ellipse;whiteSpace=wrap;html=1;" parent="1" vertex="1">
          <mxGeometry x="383" y="2470" width="120" height="80" as="geometry" />
        </mxCell>
        <mxCell id="aIVWhXOY09GI1YQX6U9N-46" value="" style="endArrow=classic;html=1;rounded=0;exitX=1;exitY=0.3333333333333333;exitDx=0;exitDy=0;exitPerimeter=0;entryX=0;entryY=0.5;entryDx=0;entryDy=0;" parent="1" source="aIVWhXOY09GI1YQX6U9N-4" target="aIVWhXOY09GI1YQX6U9N-45" edge="1">
          <mxGeometry width="50" height="50" relative="1" as="geometry">
            <mxPoint x="170" y="2520" as="sourcePoint" />
            <mxPoint x="220" y="2470" as="targetPoint" />
          </mxGeometry>
        </mxCell>
        <mxCell id="aIVWhXOY09GI1YQX6U9N-47" value="" style="endArrow=classic;html=1;rounded=0;exitX=1;exitY=0.3333333333333333;exitDx=0;exitDy=0;exitPerimeter=0;entryX=0;entryY=0.5;entryDx=0;entryDy=0;" parent="1" source="aIVWhXOY09GI1YQX6U9N-4" target="aIVWhXOY09GI1YQX6U9N-39" edge="1">
          <mxGeometry width="50" height="50" relative="1" as="geometry">
            <mxPoint x="160" y="2700" as="sourcePoint" />
            <mxPoint x="210" y="2650" as="targetPoint" />
          </mxGeometry>
        </mxCell>
        <mxCell id="aIVWhXOY09GI1YQX6U9N-48" value="" style="endArrow=classic;html=1;rounded=0;entryX=0;entryY=0;entryDx=0;entryDy=0;" parent="1" target="aIVWhXOY09GI1YQX6U9N-38" edge="1">
          <mxGeometry width="50" height="50" relative="1" as="geometry">
            <mxPoint y="2530" as="sourcePoint" />
            <mxPoint x="200" y="2720" as="targetPoint" />
          </mxGeometry>
        </mxCell>
        <mxCell id="aIVWhXOY09GI1YQX6U9N-49" value="" style="endArrow=classic;html=1;rounded=0;exitX=1;exitY=0.3333333333333333;exitDx=0;exitDy=0;exitPerimeter=0;entryX=0;entryY=0.5;entryDx=0;entryDy=0;" parent="1" source="aIVWhXOY09GI1YQX6U9N-1" target="aIVWhXOY09GI1YQX6U9N-35" edge="1">
          <mxGeometry width="50" height="50" relative="1" as="geometry">
            <mxPoint x="200" y="190" as="sourcePoint" />
            <mxPoint x="250" y="140" as="targetPoint" />
          </mxGeometry>
        </mxCell>
        <mxCell id="aIVWhXOY09GI1YQX6U9N-50" value="" style="endArrow=classic;html=1;rounded=0;exitX=1;exitY=0.3333333333333333;exitDx=0;exitDy=0;exitPerimeter=0;entryX=0;entryY=0.5;entryDx=0;entryDy=0;" parent="1" source="aIVWhXOY09GI1YQX6U9N-1" target="aIVWhXOY09GI1YQX6U9N-36" edge="1">
          <mxGeometry width="50" height="50" relative="1" as="geometry">
            <mxPoint x="150" y="290" as="sourcePoint" />
            <mxPoint x="200" y="240" as="targetPoint" />
          </mxGeometry>
        </mxCell>
        <mxCell id="aIVWhXOY09GI1YQX6U9N-51" value="" style="endArrow=classic;html=1;rounded=0;exitX=1;exitY=0.3333333333333333;exitDx=0;exitDy=0;exitPerimeter=0;entryX=0;entryY=0.5;entryDx=0;entryDy=0;" parent="1" source="aIVWhXOY09GI1YQX6U9N-1" target="aIVWhXOY09GI1YQX6U9N-41" edge="1">
          <mxGeometry width="50" height="50" relative="1" as="geometry">
            <mxPoint x="-6" y="280" as="sourcePoint" />
            <mxPoint x="288" y="290" as="targetPoint" />
          </mxGeometry>
        </mxCell>
        <mxCell id="aIVWhXOY09GI1YQX6U9N-52" value="" style="endArrow=classic;html=1;rounded=0;entryX=0;entryY=0.5;entryDx=0;entryDy=0;" parent="1" target="aIVWhXOY09GI1YQX6U9N-37" edge="1">
          <mxGeometry width="50" height="50" relative="1" as="geometry">
            <mxPoint y="230" as="sourcePoint" />
            <mxPoint x="314" y="260" as="targetPoint" />
          </mxGeometry>
        </mxCell>
        <mxCell id="aIVWhXOY09GI1YQX6U9N-53" value="&lt;font style=&quot;font-size: 14px;&quot;&gt;User Authentication and Authorization&lt;/font&gt;" style="ellipse;whiteSpace=wrap;html=1;" parent="1" vertex="1">
          <mxGeometry x="1370" y="330" width="120" height="80" as="geometry" />
        </mxCell>
        <mxCell id="aIVWhXOY09GI1YQX6U9N-54" value="&lt;font style=&quot;font-size: 14px;&quot;&gt;Log in&lt;/font&gt;" style="ellipse;whiteSpace=wrap;html=1;" parent="1" vertex="1">
          <mxGeometry x="1040" y="2410" width="120" height="80" as="geometry" />
        </mxCell>
        <mxCell id="aIVWhXOY09GI1YQX6U9N-55" value="" style="endArrow=classic;html=1;rounded=0;entryX=1;entryY=0.5;entryDx=0;entryDy=0;exitX=0;exitY=0.3333333333333333;exitDx=0;exitDy=0;exitPerimeter=0;" parent="1" source="aIVWhXOY09GI1YQX6U9N-8" target="aIVWhXOY09GI1YQX6U9N-54" edge="1">
          <mxGeometry width="50" height="50" relative="1" as="geometry">
            <mxPoint x="1740" y="2550" as="sourcePoint" />
            <mxPoint x="1790" y="2500" as="targetPoint" />
          </mxGeometry>
        </mxCell>
        <mxCell id="aIVWhXOY09GI1YQX6U9N-56" value="" style="endArrow=classic;html=1;rounded=0;entryX=1;entryY=0.5;entryDx=0;entryDy=0;exitX=0;exitY=0.3333333333333333;exitDx=0;exitDy=0;exitPerimeter=0;" parent="1" source="aIVWhXOY09GI1YQX6U9N-8" target="aIVWhXOY09GI1YQX6U9N-22" edge="1">
          <mxGeometry width="50" height="50" relative="1" as="geometry">
            <mxPoint x="1730" y="2720" as="sourcePoint" />
            <mxPoint x="1780" y="2670" as="targetPoint" />
          </mxGeometry>
        </mxCell>
        <mxCell id="aIVWhXOY09GI1YQX6U9N-57" value="" style="endArrow=classic;html=1;rounded=0;entryX=1;entryY=0.5;entryDx=0;entryDy=0;" parent="1" target="aIVWhXOY09GI1YQX6U9N-21" edge="1">
          <mxGeometry width="50" height="50" relative="1" as="geometry">
            <mxPoint x="1980" y="2590" as="sourcePoint" />
            <mxPoint x="1790" y="2730" as="targetPoint" />
          </mxGeometry>
        </mxCell>
        <mxCell id="aIVWhXOY09GI1YQX6U9N-58" value="" style="endArrow=classic;html=1;rounded=0;entryX=1;entryY=0.5;entryDx=0;entryDy=0;" parent="1" target="aIVWhXOY09GI1YQX6U9N-23" edge="1">
          <mxGeometry width="50" height="50" relative="1" as="geometry">
            <mxPoint x="1980" y="2590" as="sourcePoint" />
            <mxPoint x="1810" y="2790" as="targetPoint" />
          </mxGeometry>
        </mxCell>
        <mxCell id="aIVWhXOY09GI1YQX6U9N-62" value="&lt;font style=&quot;font-size: 14px;&quot;&gt;Patient Registration&lt;br&gt;&lt;/font&gt;" style="ellipse;whiteSpace=wrap;html=1;" parent="1" vertex="1">
          <mxGeometry x="1610" y="1460" width="120" height="80" as="geometry" />
        </mxCell>
        <mxCell id="aIVWhXOY09GI1YQX6U9N-63" value="&lt;font style=&quot;font-size: 14px;&quot;&gt;User Authentication and Authorization&lt;/font&gt;" style="ellipse;whiteSpace=wrap;html=1;" parent="1" vertex="1">
          <mxGeometry x="1410" y="1610" width="120" height="80" as="geometry" />
        </mxCell>
        <mxCell id="aIVWhXOY09GI1YQX6U9N-64" value="" style="endArrow=classic;html=1;rounded=0;entryX=1;entryY=0.5;entryDx=0;entryDy=0;exitX=0;exitY=0.3333333333333333;exitDx=0;exitDy=0;exitPerimeter=0;" parent="1" source="aIVWhXOY09GI1YQX6U9N-7" target="aIVWhXOY09GI1YQX6U9N-62" edge="1">
          <mxGeometry width="50" height="50" relative="1" as="geometry">
            <mxPoint x="1770" y="1870" as="sourcePoint" />
            <mxPoint x="1820" y="1820" as="targetPoint" />
          </mxGeometry>
        </mxCell>
        <mxCell id="aIVWhXOY09GI1YQX6U9N-65" value="" style="endArrow=classic;html=1;rounded=0;entryX=1;entryY=0.5;entryDx=0;entryDy=0;exitX=0;exitY=0.3333333333333333;exitDx=0;exitDy=0;exitPerimeter=0;" parent="1" source="aIVWhXOY09GI1YQX6U9N-7" target="aIVWhXOY09GI1YQX6U9N-63" edge="1">
          <mxGeometry width="50" height="50" relative="1" as="geometry">
            <mxPoint x="1760" y="1880" as="sourcePoint" />
            <mxPoint x="1810" y="1830" as="targetPoint" />
          </mxGeometry>
        </mxCell>
        <mxCell id="aIVWhXOY09GI1YQX6U9N-66" value="" style="endArrow=classic;html=1;rounded=0;entryX=1;entryY=0.5;entryDx=0;entryDy=0;exitX=0;exitY=0.3333333333333333;exitDx=0;exitDy=0;exitPerimeter=0;" parent="1" source="aIVWhXOY09GI1YQX6U9N-7" target="aIVWhXOY09GI1YQX6U9N-30" edge="1">
          <mxGeometry width="50" height="50" relative="1" as="geometry">
            <mxPoint x="1800" y="2100" as="sourcePoint" />
            <mxPoint x="1850" y="2050" as="targetPoint" />
          </mxGeometry>
        </mxCell>
        <mxCell id="aIVWhXOY09GI1YQX6U9N-67" value="" style="endArrow=classic;html=1;rounded=0;entryX=1;entryY=0.5;entryDx=0;entryDy=0;exitX=0;exitY=0.3333333333333333;exitDx=0;exitDy=0;exitPerimeter=0;" parent="1" source="aIVWhXOY09GI1YQX6U9N-7" target="aIVWhXOY09GI1YQX6U9N-31" edge="1">
          <mxGeometry width="50" height="50" relative="1" as="geometry">
            <mxPoint x="1810" y="2130" as="sourcePoint" />
            <mxPoint x="1860" y="2080" as="targetPoint" />
          </mxGeometry>
        </mxCell>
        <mxCell id="aIVWhXOY09GI1YQX6U9N-68" value="" style="endArrow=classic;html=1;rounded=0;entryX=1;entryY=0.5;entryDx=0;entryDy=0;" parent="1" target="aIVWhXOY09GI1YQX6U9N-32" edge="1">
          <mxGeometry width="50" height="50" relative="1" as="geometry">
            <mxPoint x="1990" y="1900" as="sourcePoint" />
            <mxPoint x="1860" y="2110" as="targetPoint" />
          </mxGeometry>
        </mxCell>
        <mxCell id="aIVWhXOY09GI1YQX6U9N-69" value="" style="endArrow=classic;html=1;rounded=0;entryX=1;entryY=0.5;entryDx=0;entryDy=0;" parent="1" target="aIVWhXOY09GI1YQX6U9N-33" edge="1">
          <mxGeometry width="50" height="50" relative="1" as="geometry">
            <mxPoint x="1990" y="1900" as="sourcePoint" />
            <mxPoint x="1850" y="2160" as="targetPoint" />
          </mxGeometry>
        </mxCell>
        <mxCell id="aIVWhXOY09GI1YQX6U9N-70" value="" style="endArrow=classic;html=1;rounded=0;entryX=1;entryY=0.5;entryDx=0;entryDy=0;exitX=0;exitY=0.3333333333333333;exitDx=0;exitDy=0;exitPerimeter=0;" parent="1" source="aIVWhXOY09GI1YQX6U9N-7" target="aIVWhXOY09GI1YQX6U9N-34" edge="1">
          <mxGeometry width="50" height="50" relative="1" as="geometry">
            <mxPoint x="1780" y="1910" as="sourcePoint" />
            <mxPoint x="1850" y="2130" as="targetPoint" />
          </mxGeometry>
        </mxCell>
        <mxCell id="aIVWhXOY09GI1YQX6U9N-71" value="" style="endArrow=classic;html=1;rounded=0;entryX=1;entryY=0.5;entryDx=0;entryDy=0;exitX=0;exitY=0.3333333333333333;exitDx=0;exitDy=0;exitPerimeter=0;" parent="1" source="aIVWhXOY09GI1YQX6U9N-5" target="aIVWhXOY09GI1YQX6U9N-25" edge="1">
          <mxGeometry width="50" height="50" relative="1" as="geometry">
            <mxPoint x="1830" y="160" as="sourcePoint" />
            <mxPoint x="1880" y="110" as="targetPoint" />
          </mxGeometry>
        </mxCell>
        <mxCell id="aIVWhXOY09GI1YQX6U9N-72" value="" style="endArrow=classic;html=1;rounded=0;entryX=1;entryY=0.5;entryDx=0;entryDy=0;exitX=0;exitY=0.3333333333333333;exitDx=0;exitDy=0;exitPerimeter=0;" parent="1" source="aIVWhXOY09GI1YQX6U9N-5" target="aIVWhXOY09GI1YQX6U9N-24" edge="1">
          <mxGeometry width="50" height="50" relative="1" as="geometry">
            <mxPoint x="1810" y="410" as="sourcePoint" />
            <mxPoint x="1860" y="360" as="targetPoint" />
          </mxGeometry>
        </mxCell>
        <mxCell id="aIVWhXOY09GI1YQX6U9N-73" value="" style="endArrow=classic;html=1;rounded=0;entryX=1;entryY=0.5;entryDx=0;entryDy=0;exitX=0;exitY=0.3333333333333333;exitDx=0;exitDy=0;exitPerimeter=0;" parent="1" source="aIVWhXOY09GI1YQX6U9N-5" target="aIVWhXOY09GI1YQX6U9N-53" edge="1">
          <mxGeometry width="50" height="50" relative="1" as="geometry">
            <mxPoint x="1830" y="440" as="sourcePoint" />
            <mxPoint x="1870" y="390" as="targetPoint" />
          </mxGeometry>
        </mxCell>
        <mxCell id="aIVWhXOY09GI1YQX6U9N-75" value="" style="endArrow=classic;html=1;rounded=0;entryX=0.058;entryY=0.743;entryDx=0;entryDy=0;entryPerimeter=0;" parent="1" target="aIVWhXOY09GI1YQX6U9N-42" edge="1">
          <mxGeometry width="50" height="50" relative="1" as="geometry">
            <mxPoint y="950" as="sourcePoint" />
            <mxPoint x="310" y="990" as="targetPoint" />
          </mxGeometry>
        </mxCell>
        <mxCell id="aIVWhXOY09GI1YQX6U9N-77" value="" style="endArrow=classic;html=1;rounded=0;exitX=1;exitY=0.3333333333333333;exitDx=0;exitDy=0;exitPerimeter=0;entryX=0.072;entryY=0.734;entryDx=0;entryDy=0;entryPerimeter=0;" parent="1" source="aIVWhXOY09GI1YQX6U9N-2" target="aIVWhXOY09GI1YQX6U9N-18" edge="1">
          <mxGeometry width="50" height="50" relative="1" as="geometry">
            <mxPoint x="260" y="1240" as="sourcePoint" />
            <mxPoint x="310" y="1190" as="targetPoint" />
          </mxGeometry>
        </mxCell>
        <mxCell id="aIVWhXOY09GI1YQX6U9N-78" value="" style="endArrow=classic;html=1;rounded=0;exitX=1;exitY=0.3333333333333333;exitDx=0;exitDy=0;exitPerimeter=0;" parent="1" source="aIVWhXOY09GI1YQX6U9N-2" target="aIVWhXOY09GI1YQX6U9N-17" edge="1">
          <mxGeometry width="50" height="50" relative="1" as="geometry">
            <mxPoint x="260" y="1240" as="sourcePoint" />
            <mxPoint x="310" y="1190" as="targetPoint" />
          </mxGeometry>
        </mxCell>
        <mxCell id="aIVWhXOY09GI1YQX6U9N-79" value="" style="endArrow=classic;html=1;rounded=0;exitX=1;exitY=0.3333333333333333;exitDx=0;exitDy=0;exitPerimeter=0;entryX=0.016;entryY=0.593;entryDx=0;entryDy=0;entryPerimeter=0;" parent="1" source="aIVWhXOY09GI1YQX6U9N-3" target="aIVWhXOY09GI1YQX6U9N-44" edge="1">
          <mxGeometry width="50" height="50" relative="1" as="geometry">
            <mxPoint x="210" y="1890" as="sourcePoint" />
            <mxPoint x="260" y="1840" as="targetPoint" />
          </mxGeometry>
        </mxCell>
        <mxCell id="aIVWhXOY09GI1YQX6U9N-80" value="" style="endArrow=classic;html=1;rounded=0;exitX=1;exitY=0.3333333333333333;exitDx=0;exitDy=0;exitPerimeter=0;entryX=0;entryY=0.5;entryDx=0;entryDy=0;" parent="1" source="aIVWhXOY09GI1YQX6U9N-3" target="aIVWhXOY09GI1YQX6U9N-26" edge="1">
          <mxGeometry width="50" height="50" relative="1" as="geometry">
            <mxPoint x="210" y="1890" as="sourcePoint" />
            <mxPoint x="260" y="1840" as="targetPoint" />
          </mxGeometry>
        </mxCell>
        <mxCell id="aIVWhXOY09GI1YQX6U9N-81" value="" style="endArrow=classic;html=1;rounded=0;exitX=1;exitY=0.3333333333333333;exitDx=0;exitDy=0;exitPerimeter=0;entryX=0.073;entryY=0.22;entryDx=0;entryDy=0;entryPerimeter=0;" parent="1" source="aIVWhXOY09GI1YQX6U9N-3" target="aIVWhXOY09GI1YQX6U9N-27" edge="1">
          <mxGeometry width="50" height="50" relative="1" as="geometry">
            <mxPoint x="210" y="1990" as="sourcePoint" />
            <mxPoint x="260" y="1940" as="targetPoint" />
          </mxGeometry>
        </mxCell>
        <mxCell id="aIVWhXOY09GI1YQX6U9N-82" value="" style="endArrow=classic;html=1;rounded=0;exitX=1;exitY=0.3333333333333333;exitDx=0;exitDy=0;exitPerimeter=0;entryX=0.092;entryY=0.251;entryDx=0;entryDy=0;entryPerimeter=0;" parent="1" source="aIVWhXOY09GI1YQX6U9N-3" target="aIVWhXOY09GI1YQX6U9N-28" edge="1">
          <mxGeometry width="50" height="50" relative="1" as="geometry">
            <mxPoint x="210" y="1990" as="sourcePoint" />
            <mxPoint x="260" y="1940" as="targetPoint" />
          </mxGeometry>
        </mxCell>
        <mxCell id="aIVWhXOY09GI1YQX6U9N-83" value="" style="endArrow=classic;html=1;rounded=0;exitX=1;exitY=0.3333333333333333;exitDx=0;exitDy=0;exitPerimeter=0;entryX=0.073;entryY=0.298;entryDx=0;entryDy=0;entryPerimeter=0;" parent="1" source="aIVWhXOY09GI1YQX6U9N-3" target="aIVWhXOY09GI1YQX6U9N-29" edge="1">
          <mxGeometry width="50" height="50" relative="1" as="geometry">
            <mxPoint x="210" y="2080" as="sourcePoint" />
            <mxPoint x="260" y="2030" as="targetPoint" />
          </mxGeometry>
        </mxCell>
        <mxCell id="aIVWhXOY09GI1YQX6U9N-84" value="" style="endArrow=classic;html=1;rounded=0;exitX=0;exitY=0.3333333333333333;exitDx=0;exitDy=0;exitPerimeter=0;entryX=1;entryY=0.594;entryDx=0;entryDy=0;entryPerimeter=0;" parent="1" source="aIVWhXOY09GI1YQX6U9N-6" target="aIVWhXOY09GI1YQX6U9N-11" edge="1">
          <mxGeometry width="50" height="50" relative="1" as="geometry">
            <mxPoint x="1440" y="750" as="sourcePoint" />
            <mxPoint x="1490" y="700" as="targetPoint" />
          </mxGeometry>
        </mxCell>
        <mxCell id="aIVWhXOY09GI1YQX6U9N-85" value="" style="endArrow=classic;html=1;rounded=0;exitX=0;exitY=0.3333333333333333;exitDx=0;exitDy=0;exitPerimeter=0;entryX=1;entryY=0.594;entryDx=0;entryDy=0;entryPerimeter=0;" parent="1" source="aIVWhXOY09GI1YQX6U9N-6" target="aIVWhXOY09GI1YQX6U9N-10" edge="1">
          <mxGeometry width="50" height="50" relative="1" as="geometry">
            <mxPoint x="1440" y="750" as="sourcePoint" />
            <mxPoint x="1490" y="700" as="targetPoint" />
          </mxGeometry>
        </mxCell>
        <mxCell id="aIVWhXOY09GI1YQX6U9N-86" value="" style="endArrow=classic;html=1;rounded=0;exitX=0;exitY=0.3333333333333333;exitDx=0;exitDy=0;exitPerimeter=0;" parent="1" source="aIVWhXOY09GI1YQX6U9N-6" target="aIVWhXOY09GI1YQX6U9N-12" edge="1">
          <mxGeometry width="50" height="50" relative="1" as="geometry">
            <mxPoint x="1440" y="940" as="sourcePoint" />
            <mxPoint x="1490" y="890" as="targetPoint" />
          </mxGeometry>
        </mxCell>
        <mxCell id="aIVWhXOY09GI1YQX6U9N-87" value="" style="endArrow=classic;html=1;rounded=0;exitX=0;exitY=0.3333333333333333;exitDx=0;exitDy=0;exitPerimeter=0;entryX=1;entryY=0.5;entryDx=0;entryDy=0;" parent="1" source="aIVWhXOY09GI1YQX6U9N-6" target="aIVWhXOY09GI1YQX6U9N-13" edge="1">
          <mxGeometry width="50" height="50" relative="1" as="geometry">
            <mxPoint x="1440" y="1030" as="sourcePoint" />
            <mxPoint x="1490" y="980" as="targetPoint" />
          </mxGeometry>
        </mxCell>
        <mxCell id="aIVWhXOY09GI1YQX6U9N-88" value="" style="endArrow=classic;html=1;rounded=0;exitX=0;exitY=0.3333333333333333;exitDx=0;exitDy=0;exitPerimeter=0;entryX=0.994;entryY=0.407;entryDx=0;entryDy=0;entryPerimeter=0;" parent="1" source="aIVWhXOY09GI1YQX6U9N-6" target="aIVWhXOY09GI1YQX6U9N-14" edge="1">
          <mxGeometry width="50" height="50" relative="1" as="geometry">
            <mxPoint x="1440" y="1030" as="sourcePoint" />
            <mxPoint x="1490" y="980" as="targetPoint" />
          </mxGeometry>
        </mxCell>
        <mxCell id="aIVWhXOY09GI1YQX6U9N-89" value="" style="endArrow=classic;html=1;rounded=0;exitX=0;exitY=0.3333333333333333;exitDx=0;exitDy=0;exitPerimeter=0;entryX=0.981;entryY=0.401;entryDx=0;entryDy=0;entryPerimeter=0;" parent="1" source="aIVWhXOY09GI1YQX6U9N-6" target="aIVWhXOY09GI1YQX6U9N-15" edge="1">
          <mxGeometry width="50" height="50" relative="1" as="geometry">
            <mxPoint x="1440" y="1220" as="sourcePoint" />
            <mxPoint x="1490" y="1170" as="targetPoint" />
          </mxGeometry>
        </mxCell>
        <mxCell id="aIVWhXOY09GI1YQX6U9N-90" value="" style="endArrow=classic;html=1;rounded=0;exitX=0;exitY=0.3333333333333333;exitDx=0;exitDy=0;exitPerimeter=0;entryX=0.975;entryY=0.414;entryDx=0;entryDy=0;entryPerimeter=0;" parent="1" source="aIVWhXOY09GI1YQX6U9N-6" target="aIVWhXOY09GI1YQX6U9N-16" edge="1">
          <mxGeometry width="50" height="50" relative="1" as="geometry">
            <mxPoint x="1440" y="1220" as="sourcePoint" />
            <mxPoint x="1490" y="1170" as="targetPoint" />
          </mxGeometry>
        </mxCell>
        <mxCell id="aIVWhXOY09GI1YQX6U9N-91" value="" style="endArrow=classic;html=1;rounded=0;exitX=1;exitY=0.3333333333333333;exitDx=0;exitDy=0;exitPerimeter=0;entryX=0.313;entryY=0.06;entryDx=0;entryDy=0;entryPerimeter=0;" parent="1" source="aIVWhXOY09GI1YQX6U9N-2" target="aIVWhXOY09GI1YQX6U9N-20" edge="1">
          <mxGeometry width="50" height="50" relative="1" as="geometry">
            <mxPoint x="250" y="1220" as="sourcePoint" />
            <mxPoint x="300" y="1170" as="targetPoint" />
          </mxGeometry>
        </mxCell>
        <mxCell id="aIVWhXOY09GI1YQX6U9N-92" value="" style="endArrow=classic;html=1;rounded=0;exitX=1;exitY=0.3333333333333333;exitDx=0;exitDy=0;exitPerimeter=0;entryX=0;entryY=0;entryDx=0;entryDy=0;" parent="1" source="aIVWhXOY09GI1YQX6U9N-2" target="aIVWhXOY09GI1YQX6U9N-19" edge="1">
          <mxGeometry width="50" height="50" relative="1" as="geometry">
            <mxPoint x="250" y="940" as="sourcePoint" />
            <mxPoint x="300" y="890" as="targetPoint" />
          </mxGeometry>
        </mxCell>
        <mxCell id="aIVWhXOY09GI1YQX6U9N-93" value="" style="endArrow=classic;html=1;rounded=0;exitX=0;exitY=0.5;exitDx=0;exitDy=0;entryX=0.5;entryY=1;entryDx=0;entryDy=0;dashed=1;" parent="1" source="aIVWhXOY09GI1YQX6U9N-30" target="aIVWhXOY09GI1YQX6U9N-16" edge="1">
          <mxGeometry width="50" height="50" relative="1" as="geometry">
            <mxPoint x="980" y="1690" as="sourcePoint" />
            <mxPoint x="1030" y="1640" as="targetPoint" />
          </mxGeometry>
        </mxCell>
        <mxCell id="aIVWhXOY09GI1YQX6U9N-94" value="extend" style="edgeLabel;html=1;align=center;verticalAlign=middle;resizable=0;points=[];fontStyle=1;fontSize=12;" parent="aIVWhXOY09GI1YQX6U9N-93" vertex="1" connectable="0">
          <mxGeometry x="-0.089" y="3" relative="1" as="geometry">
            <mxPoint x="37" y="-136" as="offset" />
          </mxGeometry>
        </mxCell>
        <mxCell id="aIVWhXOY09GI1YQX6U9N-95" value="" style="endArrow=classic;html=1;rounded=0;exitX=0;exitY=0.5;exitDx=0;exitDy=0;dashed=1;" parent="1" source="aIVWhXOY09GI1YQX6U9N-14" target="aIVWhXOY09GI1YQX6U9N-18" edge="1">
          <mxGeometry width="50" height="50" relative="1" as="geometry">
            <mxPoint x="920" y="1060" as="sourcePoint" />
            <mxPoint x="970" y="1010" as="targetPoint" />
          </mxGeometry>
        </mxCell>
        <mxCell id="aIVWhXOY09GI1YQX6U9N-96" value="extend" style="edgeLabel;html=1;align=center;verticalAlign=middle;resizable=0;points=[];fontStyle=1;fontSize=12;" parent="aIVWhXOY09GI1YQX6U9N-95" vertex="1" connectable="0">
          <mxGeometry x="0.0576" y="7" relative="1" as="geometry">
            <mxPoint x="-387" y="95" as="offset" />
          </mxGeometry>
        </mxCell>
        <mxCell id="aIVWhXOY09GI1YQX6U9N-101" value="" style="endArrow=classic;html=1;rounded=0;exitX=0.5;exitY=1;exitDx=0;exitDy=0;dashed=1;" parent="1" source="aIVWhXOY09GI1YQX6U9N-11" target="aIVWhXOY09GI1YQX6U9N-10" edge="1">
          <mxGeometry width="50" height="50" relative="1" as="geometry">
            <mxPoint x="1250" y="720" as="sourcePoint" />
            <mxPoint x="1300" y="670" as="targetPoint" />
          </mxGeometry>
        </mxCell>
        <mxCell id="aIVWhXOY09GI1YQX6U9N-102" value="include" style="edgeLabel;html=1;align=center;verticalAlign=middle;resizable=0;points=[];fontStyle=1;fontSize=12;" parent="aIVWhXOY09GI1YQX6U9N-101" vertex="1" connectable="0">
          <mxGeometry x="-0.1321" relative="1" as="geometry">
            <mxPoint as="offset" />
          </mxGeometry>
        </mxCell>
        <mxCell id="aIVWhXOY09GI1YQX6U9N-103" value="" style="endArrow=classic;html=1;rounded=0;dashed=1;" parent="1" source="aIVWhXOY09GI1YQX6U9N-10" target="aIVWhXOY09GI1YQX6U9N-12" edge="1">
          <mxGeometry width="50" height="50" relative="1" as="geometry">
            <mxPoint x="1170" y="840" as="sourcePoint" />
            <mxPoint x="1220" y="790" as="targetPoint" />
          </mxGeometry>
        </mxCell>
        <mxCell id="aIVWhXOY09GI1YQX6U9N-119" value="include" style="edgeLabel;html=1;align=center;verticalAlign=middle;resizable=0;points=[];fontStyle=1;fontSize=12;" parent="aIVWhXOY09GI1YQX6U9N-103" vertex="1" connectable="0">
          <mxGeometry x="-0.1091" y="-2" relative="1" as="geometry">
            <mxPoint as="offset" />
          </mxGeometry>
        </mxCell>
        <mxCell id="aIVWhXOY09GI1YQX6U9N-108" value="" style="endArrow=classic;html=1;rounded=0;exitX=0.261;exitY=0.985;exitDx=0;exitDy=0;exitPerimeter=0;entryX=0.5;entryY=0;entryDx=0;entryDy=0;dashed=1;" parent="1" source="aIVWhXOY09GI1YQX6U9N-10" target="aIVWhXOY09GI1YQX6U9N-13" edge="1">
          <mxGeometry width="50" height="50" relative="1" as="geometry">
            <mxPoint x="1220" y="1000" as="sourcePoint" />
            <mxPoint x="1270" y="950" as="targetPoint" />
          </mxGeometry>
        </mxCell>
        <mxCell id="aIVWhXOY09GI1YQX6U9N-118" value="include" style="edgeLabel;html=1;align=center;verticalAlign=middle;resizable=0;points=[];fontStyle=1;fontSize=12;" parent="aIVWhXOY09GI1YQX6U9N-108" vertex="1" connectable="0">
          <mxGeometry x="-0.6362" y="-2" relative="1" as="geometry">
            <mxPoint y="1" as="offset" />
          </mxGeometry>
        </mxCell>
        <mxCell id="aIVWhXOY09GI1YQX6U9N-110" value="" style="endArrow=classic;html=1;rounded=0;exitX=0.689;exitY=0.913;exitDx=0;exitDy=0;entryX=0.5;entryY=0;entryDx=0;entryDy=0;exitPerimeter=0;dashed=1;" parent="1" source="aIVWhXOY09GI1YQX6U9N-10" target="aIVWhXOY09GI1YQX6U9N-14" edge="1">
          <mxGeometry width="50" height="50" relative="1" as="geometry">
            <mxPoint x="1180" y="1010" as="sourcePoint" />
            <mxPoint x="1230" y="960" as="targetPoint" />
          </mxGeometry>
        </mxCell>
        <mxCell id="aIVWhXOY09GI1YQX6U9N-120" value="incliude" style="edgeLabel;html=1;align=center;verticalAlign=middle;resizable=0;points=[];fontStyle=1;fontSize=12;" parent="aIVWhXOY09GI1YQX6U9N-110" vertex="1" connectable="0">
          <mxGeometry x="-0.0223" y="-3" relative="1" as="geometry">
            <mxPoint x="53" y="101" as="offset" />
          </mxGeometry>
        </mxCell>
        <mxCell id="aIVWhXOY09GI1YQX6U9N-112" value="" style="endArrow=classic;html=1;rounded=0;exitX=1;exitY=1;exitDx=0;exitDy=0;dashed=1;" parent="1" source="aIVWhXOY09GI1YQX6U9N-10" target="aIVWhXOY09GI1YQX6U9N-15" edge="1">
          <mxGeometry width="50" height="50" relative="1" as="geometry">
            <mxPoint x="1070" y="1050" as="sourcePoint" />
            <mxPoint x="1120" y="1000" as="targetPoint" />
          </mxGeometry>
        </mxCell>
        <mxCell id="aIVWhXOY09GI1YQX6U9N-121" value="include" style="edgeLabel;html=1;align=center;verticalAlign=middle;resizable=0;points=[];fontStyle=1;fontSize=12;" parent="aIVWhXOY09GI1YQX6U9N-112" vertex="1" connectable="0">
          <mxGeometry x="-0.1843" y="-1" relative="1" as="geometry">
            <mxPoint x="-2" y="-20" as="offset" />
          </mxGeometry>
        </mxCell>
        <mxCell id="aIVWhXOY09GI1YQX6U9N-114" value="" style="endArrow=classic;html=1;rounded=0;exitX=0;exitY=0.5;exitDx=0;exitDy=0;dashed=1;entryX=0;entryY=0;entryDx=0;entryDy=0;" parent="1" source="aIVWhXOY09GI1YQX6U9N-10" target="aIVWhXOY09GI1YQX6U9N-16" edge="1">
          <mxGeometry width="50" height="50" relative="1" as="geometry">
            <mxPoint x="1270" y="1420" as="sourcePoint" />
            <mxPoint x="1320" y="1370" as="targetPoint" />
            <Array as="points">
              <mxPoint x="1180" y="970" />
            </Array>
          </mxGeometry>
        </mxCell>
        <mxCell id="aIVWhXOY09GI1YQX6U9N-115" value="include" style="edgeLabel;html=1;align=center;verticalAlign=middle;resizable=0;points=[];fontStyle=1;fontSize=12;" parent="aIVWhXOY09GI1YQX6U9N-114" vertex="1" connectable="0">
          <mxGeometry x="0.0967" relative="1" as="geometry">
            <mxPoint x="1" as="offset" />
          </mxGeometry>
        </mxCell>
        <mxCell id="HbNzouPTx2aRYGuOrPp0-1" value="" style="endArrow=classic;html=1;rounded=0;exitX=1;exitY=1;exitDx=0;exitDy=0;entryX=0;entryY=0.5;entryDx=0;entryDy=0;dashed=1;" parent="1" source="aIVWhXOY09GI1YQX6U9N-35" target="HbNzouPTx2aRYGuOrPp0-2" edge="1">
          <mxGeometry width="50" height="50" relative="1" as="geometry">
            <mxPoint x="450" y="140" as="sourcePoint" />
            <mxPoint x="500" y="90" as="targetPoint" />
          </mxGeometry>
        </mxCell>
        <mxCell id="HbNzouPTx2aRYGuOrPp0-3" value="include" style="edgeLabel;html=1;align=center;verticalAlign=middle;resizable=0;points=[];fontSize=12;fontStyle=1" parent="HbNzouPTx2aRYGuOrPp0-1" vertex="1" connectable="0">
          <mxGeometry x="-0.0858" relative="1" as="geometry">
            <mxPoint as="offset" />
          </mxGeometry>
        </mxCell>
        <mxCell id="HbNzouPTx2aRYGuOrPp0-2" value="&lt;span style=&quot;font-size: 14px;&quot;&gt;Record test&lt;/span&gt;" style="ellipse;whiteSpace=wrap;html=1;" parent="1" vertex="1">
          <mxGeometry x="710" y="50" width="120" height="80" as="geometry" />
        </mxCell>
        <mxCell id="HbNzouPTx2aRYGuOrPp0-4" value="&lt;span style=&quot;font-size: 14px;&quot;&gt;Modify test information&lt;/span&gt;" style="ellipse;whiteSpace=wrap;html=1;" parent="1" vertex="1">
          <mxGeometry x="550" y="-120" width="120" height="80" as="geometry" />
        </mxCell>
        <mxCell id="HbNzouPTx2aRYGuOrPp0-5" value="" style="endArrow=classic;html=1;rounded=0;entryX=1;entryY=0;entryDx=0;entryDy=0;exitX=0;exitY=0.5;exitDx=0;exitDy=0;dashed=1;" parent="1" source="HbNzouPTx2aRYGuOrPp0-4" target="aIVWhXOY09GI1YQX6U9N-35" edge="1">
          <mxGeometry width="50" height="50" relative="1" as="geometry">
            <mxPoint x="440" y="230" as="sourcePoint" />
            <mxPoint x="490" y="180" as="targetPoint" />
          </mxGeometry>
        </mxCell>
        <mxCell id="HbNzouPTx2aRYGuOrPp0-6" value="extend" style="edgeLabel;html=1;align=center;verticalAlign=middle;resizable=0;points=[];fontStyle=1;fontSize=12;" parent="HbNzouPTx2aRYGuOrPp0-5" vertex="1" connectable="0">
          <mxGeometry x="0.1304" y="-2" relative="1" as="geometry">
            <mxPoint as="offset" />
          </mxGeometry>
        </mxCell>
        <mxCell id="HbNzouPTx2aRYGuOrPp0-7" value="&lt;span style=&quot;font-size: 14px;&quot;&gt;Request test&lt;/span&gt;" style="ellipse;whiteSpace=wrap;html=1;" parent="1" vertex="1">
          <mxGeometry x="470" y="970" width="130" height="80" as="geometry" />
        </mxCell>
        <mxCell id="HbNzouPTx2aRYGuOrPp0-8" value="&lt;span style=&quot;font-size: 14px;&quot;&gt;Review test&lt;/span&gt;" style="ellipse;whiteSpace=wrap;html=1;" parent="1" vertex="1">
          <mxGeometry x="610" y="1070" width="120" height="80" as="geometry" />
        </mxCell>
        <mxCell id="HbNzouPTx2aRYGuOrPp0-10" value="" style="endArrow=classic;html=1;rounded=0;exitX=1;exitY=0.5;exitDx=0;exitDy=0;entryX=0;entryY=0.5;entryDx=0;entryDy=0;dashed=1;" parent="1" source="aIVWhXOY09GI1YQX6U9N-19" target="HbNzouPTx2aRYGuOrPp0-7" edge="1">
          <mxGeometry width="50" height="50" relative="1" as="geometry">
            <mxPoint x="370" y="1120" as="sourcePoint" />
            <mxPoint x="420" y="1070" as="targetPoint" />
          </mxGeometry>
        </mxCell>
        <mxCell id="HbNzouPTx2aRYGuOrPp0-12" value="include" style="edgeLabel;html=1;align=center;verticalAlign=middle;resizable=0;points=[];rotation=-30;fontStyle=1;fontSize=12;" parent="HbNzouPTx2aRYGuOrPp0-10" vertex="1" connectable="0">
          <mxGeometry x="0.2101" y="1" relative="1" as="geometry">
            <mxPoint as="offset" />
          </mxGeometry>
        </mxCell>
        <mxCell id="HbNzouPTx2aRYGuOrPp0-11" value="" style="endArrow=classic;html=1;rounded=0;exitX=1;exitY=0.5;exitDx=0;exitDy=0;entryX=0;entryY=0.5;entryDx=0;entryDy=0;dashed=1;" parent="1" source="aIVWhXOY09GI1YQX6U9N-19" target="HbNzouPTx2aRYGuOrPp0-8" edge="1">
          <mxGeometry width="50" height="50" relative="1" as="geometry">
            <mxPoint x="305" y="1182" as="sourcePoint" />
            <mxPoint x="505" y="1110" as="targetPoint" />
          </mxGeometry>
        </mxCell>
        <mxCell id="HbNzouPTx2aRYGuOrPp0-13" value="include" style="edgeLabel;html=1;align=center;verticalAlign=middle;resizable=0;points=[];fontStyle=1;fontSize=12;" parent="HbNzouPTx2aRYGuOrPp0-11" vertex="1" connectable="0">
          <mxGeometry x="0.1725" y="3" relative="1" as="geometry">
            <mxPoint as="offset" />
          </mxGeometry>
        </mxCell>
        <mxCell id="HbNzouPTx2aRYGuOrPp0-14" value="&lt;span style=&quot;font-size: 14px;&quot;&gt;Receive request&lt;/span&gt;" style="ellipse;whiteSpace=wrap;html=1;" parent="1" vertex="1">
          <mxGeometry x="480" y="570" width="120" height="80" as="geometry" />
        </mxCell>
        <mxCell id="HbNzouPTx2aRYGuOrPp0-15" value="&lt;span style=&quot;font-size: 14px;&quot;&gt;Process test request&lt;/span&gt;" style="ellipse;whiteSpace=wrap;html=1;" parent="1" vertex="1">
          <mxGeometry x="520" y="390" width="120" height="80" as="geometry" />
        </mxCell>
        <mxCell id="HbNzouPTx2aRYGuOrPp0-16" value="" style="endArrow=classic;html=1;rounded=0;entryX=0;entryY=0.5;entryDx=0;entryDy=0;dashed=1;exitX=1;exitY=1;exitDx=0;exitDy=0;" parent="1" source="aIVWhXOY09GI1YQX6U9N-37" target="HbNzouPTx2aRYGuOrPp0-14" edge="1">
          <mxGeometry width="50" height="50" relative="1" as="geometry">
            <mxPoint x="400" y="510" as="sourcePoint" />
            <mxPoint x="450" y="460" as="targetPoint" />
          </mxGeometry>
        </mxCell>
        <mxCell id="HbNzouPTx2aRYGuOrPp0-17" value="include" style="edgeLabel;html=1;align=center;verticalAlign=middle;resizable=0;points=[];rotation=30;fontStyle=1;fontSize=12;" parent="HbNzouPTx2aRYGuOrPp0-16" vertex="1" connectable="0">
          <mxGeometry x="0.3361" y="3" relative="1" as="geometry">
            <mxPoint x="-24" y="-7" as="offset" />
          </mxGeometry>
        </mxCell>
        <mxCell id="HbNzouPTx2aRYGuOrPp0-19" value="" style="endArrow=classic;html=1;rounded=0;entryX=0;entryY=0.5;entryDx=0;entryDy=0;dashed=1;exitX=1;exitY=0;exitDx=0;exitDy=0;" parent="1" source="aIVWhXOY09GI1YQX6U9N-37" target="HbNzouPTx2aRYGuOrPp0-15" edge="1">
          <mxGeometry width="50" height="50" relative="1" as="geometry">
            <mxPoint x="415" y="519" as="sourcePoint" />
            <mxPoint x="510" y="480" as="targetPoint" />
          </mxGeometry>
        </mxCell>
        <mxCell id="HbNzouPTx2aRYGuOrPp0-20" value="include" style="edgeLabel;html=1;align=center;verticalAlign=middle;resizable=0;points=[];rotation=-30;fontStyle=1;fontSize=12;" parent="HbNzouPTx2aRYGuOrPp0-19" vertex="1" connectable="0">
          <mxGeometry x="0.3361" y="3" relative="1" as="geometry">
            <mxPoint x="-23" as="offset" />
          </mxGeometry>
        </mxCell>
        <mxCell id="HbNzouPTx2aRYGuOrPp0-21" value="" style="endArrow=classic;html=1;rounded=0;exitX=1;exitY=0.5;exitDx=0;exitDy=0;entryX=0;entryY=0.5;entryDx=0;entryDy=0;dashed=1;" parent="1" source="aIVWhXOY09GI1YQX6U9N-42" target="aIVWhXOY09GI1YQX6U9N-43" edge="1">
          <mxGeometry width="50" height="50" relative="1" as="geometry">
            <mxPoint x="660" y="860" as="sourcePoint" />
            <mxPoint x="710" y="810" as="targetPoint" />
          </mxGeometry>
        </mxCell>
        <mxCell id="HbNzouPTx2aRYGuOrPp0-22" value="include" style="edgeLabel;html=1;align=center;verticalAlign=middle;resizable=0;points=[];fontStyle=1;fontSize=12;" parent="HbNzouPTx2aRYGuOrPp0-21" vertex="1" connectable="0">
          <mxGeometry x="0.0968" y="5" relative="1" as="geometry">
            <mxPoint as="offset" />
          </mxGeometry>
        </mxCell>
        <mxCell id="HbNzouPTx2aRYGuOrPp0-23" value="" style="endArrow=classic;html=1;rounded=0;exitX=0;exitY=0;exitDx=0;exitDy=0;dashed=1;" parent="1" source="aIVWhXOY09GI1YQX6U9N-54" target="aIVWhXOY09GI1YQX6U9N-43" edge="1">
          <mxGeometry width="50" height="50" relative="1" as="geometry">
            <mxPoint x="1068" y="2338" as="sourcePoint" />
            <mxPoint x="1448" y="2456" as="targetPoint" />
          </mxGeometry>
        </mxCell>
        <mxCell id="HbNzouPTx2aRYGuOrPp0-24" value="include" style="edgeLabel;html=1;align=center;verticalAlign=middle;resizable=0;points=[];fontStyle=1;fontSize=12;" parent="HbNzouPTx2aRYGuOrPp0-23" vertex="1" connectable="0">
          <mxGeometry x="0.0968" y="5" relative="1" as="geometry">
            <mxPoint as="offset" />
          </mxGeometry>
        </mxCell>
        <mxCell id="HbNzouPTx2aRYGuOrPp0-25" value="" style="endArrow=classic;html=1;rounded=0;exitX=0;exitY=0.5;exitDx=0;exitDy=0;entryX=1;entryY=1;entryDx=0;entryDy=0;dashed=1;" parent="1" source="aIVWhXOY09GI1YQX6U9N-63" target="aIVWhXOY09GI1YQX6U9N-43" edge="1">
          <mxGeometry width="50" height="50" relative="1" as="geometry">
            <mxPoint x="490" y="1731" as="sourcePoint" />
            <mxPoint x="870" y="1849" as="targetPoint" />
          </mxGeometry>
        </mxCell>
        <mxCell id="HbNzouPTx2aRYGuOrPp0-26" value="include" style="edgeLabel;html=1;align=center;verticalAlign=middle;resizable=0;points=[];fontStyle=1;fontSize=12;" parent="HbNzouPTx2aRYGuOrPp0-25" vertex="1" connectable="0">
          <mxGeometry x="0.0968" y="5" relative="1" as="geometry">
            <mxPoint as="offset" />
          </mxGeometry>
        </mxCell>
        <mxCell id="HbNzouPTx2aRYGuOrPp0-27" value="" style="endArrow=classic;html=1;rounded=0;entryX=1;entryY=1;entryDx=0;entryDy=0;exitX=0.5;exitY=0;exitDx=0;exitDy=0;dashed=1;" parent="1" source="aIVWhXOY09GI1YQX6U9N-62" target="aIVWhXOY09GI1YQX6U9N-11" edge="1">
          <mxGeometry width="50" height="50" relative="1" as="geometry">
            <mxPoint x="1620" y="1430" as="sourcePoint" />
            <mxPoint x="1670" y="1380" as="targetPoint" />
          </mxGeometry>
        </mxCell>
        <mxCell id="HbNzouPTx2aRYGuOrPp0-28" value="include" style="edgeLabel;html=1;align=center;verticalAlign=middle;resizable=0;points=[];fontStyle=1;fontSize=12;" parent="HbNzouPTx2aRYGuOrPp0-27" vertex="1" connectable="0">
          <mxGeometry x="-0.756" y="1" relative="1" as="geometry">
            <mxPoint as="offset" />
          </mxGeometry>
        </mxCell>
        <mxCell id="HbNzouPTx2aRYGuOrPp0-29" value="" style="endArrow=classic;html=1;rounded=0;exitX=0.5;exitY=0;exitDx=0;exitDy=0;entryX=0.5;entryY=1;entryDx=0;entryDy=0;dashed=1;" parent="1" source="HbNzouPTx2aRYGuOrPp0-7" target="HbNzouPTx2aRYGuOrPp0-14" edge="1">
          <mxGeometry width="50" height="50" relative="1" as="geometry">
            <mxPoint x="670" y="820" as="sourcePoint" />
            <mxPoint x="720" y="770" as="targetPoint" />
          </mxGeometry>
        </mxCell>
        <mxCell id="HbNzouPTx2aRYGuOrPp0-30" value="include" style="edgeLabel;html=1;align=center;verticalAlign=middle;resizable=0;points=[];fontStyle=1;fontSize=12;" parent="HbNzouPTx2aRYGuOrPp0-29" vertex="1" connectable="0">
          <mxGeometry x="0.419" y="2" relative="1" as="geometry">
            <mxPoint x="3" y="-23" as="offset" />
          </mxGeometry>
        </mxCell>
        <mxCell id="HbNzouPTx2aRYGuOrPp0-31" value="" style="endArrow=classic;html=1;rounded=0;exitX=0.5;exitY=1;exitDx=0;exitDy=0;entryX=0.5;entryY=0;entryDx=0;entryDy=0;dashed=1;" parent="1" source="HbNzouPTx2aRYGuOrPp0-2" target="HbNzouPTx2aRYGuOrPp0-8" edge="1">
          <mxGeometry width="50" height="50" relative="1" as="geometry">
            <mxPoint x="900" y="340" as="sourcePoint" />
            <mxPoint x="950" y="290" as="targetPoint" />
          </mxGeometry>
        </mxCell>
        <mxCell id="HbNzouPTx2aRYGuOrPp0-32" value="include" style="edgeLabel;html=1;align=center;verticalAlign=middle;resizable=0;points=[];fontStyle=1;fontSize=12;" parent="HbNzouPTx2aRYGuOrPp0-31" vertex="1" connectable="0">
          <mxGeometry x="-0.1386" y="-1" relative="1" as="geometry">
            <mxPoint y="1" as="offset" />
          </mxGeometry>
        </mxCell>
        <mxCell id="HbNzouPTx2aRYGuOrPp0-33" value="" style="endArrow=classic;html=1;rounded=0;exitX=1;exitY=0.5;exitDx=0;exitDy=0;entryX=0;entryY=0.5;entryDx=0;entryDy=0;dashed=1;" parent="1" source="aIVWhXOY09GI1YQX6U9N-41" target="aIVWhXOY09GI1YQX6U9N-24" edge="1">
          <mxGeometry width="50" height="50" relative="1" as="geometry">
            <mxPoint x="590" y="340" as="sourcePoint" />
            <mxPoint x="640" y="290" as="targetPoint" />
          </mxGeometry>
        </mxCell>
        <mxCell id="HbNzouPTx2aRYGuOrPp0-34" value="&lt;b&gt;&lt;font style=&quot;font-size: 12px;&quot;&gt;extend&lt;/font&gt;&lt;/b&gt;" style="edgeLabel;html=1;align=center;verticalAlign=middle;resizable=0;points=[];" parent="HbNzouPTx2aRYGuOrPp0-33" vertex="1" connectable="0">
          <mxGeometry x="0.2205" relative="1" as="geometry">
            <mxPoint x="-1" as="offset" />
          </mxGeometry>
        </mxCell>
        <mxCell id="HbNzouPTx2aRYGuOrPp0-35" value="" style="endArrow=classic;html=1;rounded=0;exitX=0.985;exitY=0.427;exitDx=0;exitDy=0;entryX=0;entryY=0.5;entryDx=0;entryDy=0;dashed=1;exitPerimeter=0;" parent="1" source="aIVWhXOY09GI1YQX6U9N-42" target="aIVWhXOY09GI1YQX6U9N-24" edge="1">
          <mxGeometry width="50" height="50" relative="1" as="geometry">
            <mxPoint x="485" y="480" as="sourcePoint" />
            <mxPoint x="1370" y="360" as="targetPoint" />
          </mxGeometry>
        </mxCell>
        <mxCell id="HbNzouPTx2aRYGuOrPp0-36" value="&lt;b&gt;&lt;font style=&quot;font-size: 12px;&quot;&gt;extend&lt;/font&gt;&lt;/b&gt;" style="edgeLabel;html=1;align=center;verticalAlign=middle;resizable=0;points=[];" parent="HbNzouPTx2aRYGuOrPp0-35" vertex="1" connectable="0">
          <mxGeometry x="0.2205" relative="1" as="geometry">
            <mxPoint x="-1" as="offset" />
          </mxGeometry>
        </mxCell>
        <mxCell id="HbNzouPTx2aRYGuOrPp0-41" value="" style="endArrow=classic;html=1;rounded=0;exitX=0.5;exitY=0;exitDx=0;exitDy=0;entryX=0;entryY=0.5;entryDx=0;entryDy=0;dashed=1;" parent="1" source="aIVWhXOY09GI1YQX6U9N-44" target="aIVWhXOY09GI1YQX6U9N-24" edge="1">
          <mxGeometry width="50" height="50" relative="1" as="geometry">
            <mxPoint x="570" y="1730" as="sourcePoint" />
            <mxPoint x="620" y="1680" as="targetPoint" />
          </mxGeometry>
        </mxCell>
        <mxCell id="HbNzouPTx2aRYGuOrPp0-42" value="extend" style="edgeLabel;html=1;align=center;verticalAlign=middle;resizable=0;points=[];fontStyle=1;fontSize=12;" parent="HbNzouPTx2aRYGuOrPp0-41" vertex="1" connectable="0">
          <mxGeometry x="0.3739" relative="1" as="geometry">
            <mxPoint as="offset" />
          </mxGeometry>
        </mxCell>
        <mxCell id="HbNzouPTx2aRYGuOrPp0-43" value="" style="endArrow=classic;html=1;rounded=0;exitX=1;exitY=0;exitDx=0;exitDy=0;dashed=1;entryX=0;entryY=0.5;entryDx=0;entryDy=0;" parent="1" source="aIVWhXOY09GI1YQX6U9N-45" target="aIVWhXOY09GI1YQX6U9N-24" edge="1">
          <mxGeometry width="50" height="50" relative="1" as="geometry">
            <mxPoint x="530" y="2470" as="sourcePoint" />
            <mxPoint x="580" y="2420" as="targetPoint" />
          </mxGeometry>
        </mxCell>
        <mxCell id="HbNzouPTx2aRYGuOrPp0-44" value="erxtend" style="edgeLabel;html=1;align=center;verticalAlign=middle;resizable=0;points=[];fontStyle=1;fontSize=12;" parent="HbNzouPTx2aRYGuOrPp0-43" vertex="1" connectable="0">
          <mxGeometry x="0.5771" y="-2" relative="1" as="geometry">
            <mxPoint as="offset" />
          </mxGeometry>
        </mxCell>
        <mxCell id="HbNzouPTx2aRYGuOrPp0-45" value="" style="endArrow=classic;html=1;rounded=0;exitX=0;exitY=0;exitDx=0;exitDy=0;dashed=1;" parent="1" source="aIVWhXOY09GI1YQX6U9N-63" target="aIVWhXOY09GI1YQX6U9N-53" edge="1">
          <mxGeometry width="50" height="50" relative="1" as="geometry">
            <mxPoint x="1490" y="1580" as="sourcePoint" />
            <mxPoint x="1540" y="1530" as="targetPoint" />
            <Array as="points">
              <mxPoint x="1080" y="1060" />
            </Array>
          </mxGeometry>
        </mxCell>
        <mxCell id="HbNzouPTx2aRYGuOrPp0-46" value="extend" style="edgeLabel;html=1;align=center;verticalAlign=middle;resizable=0;points=[];fontStyle=1;fontSize=12;" parent="HbNzouPTx2aRYGuOrPp0-45" vertex="1" connectable="0">
          <mxGeometry x="0.7645" y="1" relative="1" as="geometry">
            <mxPoint as="offset" />
          </mxGeometry>
        </mxCell>
        <mxCell id="HbNzouPTx2aRYGuOrPp0-47" value="" style="endArrow=classic;html=1;rounded=0;exitX=0.5;exitY=0;exitDx=0;exitDy=0;entryX=0;entryY=1;entryDx=0;entryDy=0;dashed=1;" parent="1" source="aIVWhXOY09GI1YQX6U9N-54" target="aIVWhXOY09GI1YQX6U9N-24" edge="1">
          <mxGeometry width="50" height="50" relative="1" as="geometry">
            <mxPoint x="1090" y="2400" as="sourcePoint" />
            <mxPoint x="1140" y="2350" as="targetPoint" />
            <Array as="points">
              <mxPoint x="1010" y="1240" />
            </Array>
          </mxGeometry>
        </mxCell>
        <mxCell id="HbNzouPTx2aRYGuOrPp0-48" value="extend" style="edgeLabel;html=1;align=center;verticalAlign=middle;resizable=0;points=[];fontStyle=1;fontSize=12;" parent="HbNzouPTx2aRYGuOrPp0-47" vertex="1" connectable="0">
          <mxGeometry x="0.7123" y="1" relative="1" as="geometry">
            <mxPoint as="offset" />
          </mxGeometry>
        </mxCell>
      </root>
    </mxGraphModel>
  </diagram>
</mxfile>
